<svg width="20" height="20" viewBox="0 0 20 20" fill="none" xmlns="http://www.w3.org/2000/svg">
<path d="M6.66666 6.66667V4.33334C6.66666 3.39992 6.66666 2.93321 6.84831 2.57669C7.0081 2.26308 7.26307 2.00812 7.57667 1.84833C7.93319 1.66667 8.3999 1.66667 9.33332 1.66667H15.6667C16.6001 1.66667 17.0668 1.66667 17.4233 1.84833C17.7369 2.00812 17.9919 2.26308 18.1517 2.57669C18.3333 2.93321 18.3333 3.39992 18.3333 4.33334V10.6667C18.3333 11.6001 18.3333 12.0668 18.1517 12.4233C17.9919 12.7369 17.7369 12.9919 17.4233 13.1517C17.0668 13.3333 16.6001 13.3333 15.6667 13.3333H13.3333M4.33332 18.3333H10.6667C11.6001 18.3333 12.0668 18.3333 12.4233 18.1517C12.7369 17.9919 12.9919 17.7369 13.1517 17.4233C13.3333 17.0668 13.3333 16.6001 13.3333 15.6667V9.33334C13.3333 8.39992 13.3333 7.93321 13.1517 7.57669C12.9919 7.26308 12.7369 7.00812 12.4233 6.84833C12.0668 6.66667 11.6001 6.66667 10.6667 6.66667H4.33332C3.3999 6.66667 2.93319 6.66667 2.57667 6.84833C2.26307 7.00812 2.0081 7.26308 1.84831 7.57669C1.66666 7.93321 1.66666 8.39992 1.66666 9.33334V15.6667C1.66666 16.6001 1.66666 17.0668 1.84831 17.4233C2.0081 17.7369 2.26307 17.9919 2.57667 18.1517C2.93319 18.3333 3.3999 18.3333 4.33332 18.3333Z" stroke="#A1A1A9" stroke-width="1.5" stroke-linecap="round" stroke-linejoin="round"/>
</svg>
