<svg width="17" height="18" viewBox="0 0 17 18" fill="none" xmlns="http://www.w3.org/2000/svg">
<path d="M4.33333 6.08333H8.5M4.33333 9H11M6.56979 14H12C13.4001 14 14.1002 14 14.635 13.7275C15.1054 13.4878 15.4878 13.1054 15.7275 12.635C16 12.1002 16 11.4001 16 10V5.5C16 4.09987 16 3.3998 15.7275 2.86502C15.4878 2.39462 15.1054 2.01217 14.635 1.77248C14.1002 1.5 13.4001 1.5 12 1.5H5C3.59987 1.5 2.8998 1.5 2.36502 1.77248C1.89462 2.01217 1.51217 2.39462 1.27248 2.86502C1 3.3998 1 4.09987 1 5.5L1 15.9463C1 16.3903 1 16.6123 1.09102 16.7263C1.17019 16.8255 1.29022 16.8832 1.41712 16.8831C1.56302 16.8829 1.73639 16.7442 2.08313 16.4668L4.07101 14.8765C4.4771 14.5517 4.68014 14.3892 4.90624 14.2737C5.10683 14.1712 5.32036 14.0963 5.54101 14.051C5.78972 14 6.04975 14 6.56979 14Z" stroke="#A1A1A9" stroke-width="1.5" stroke-linecap="round" stroke-linejoin="round"/>
</svg>
