<svg width="13" height="22" viewBox="0 0 13 22" fill="none" xmlns="http://www.w3.org/2000/svg">
<path fill-rule="evenodd" clip-rule="evenodd" d="M6.59979 18.7994C7.09685 18.7994 7.4998 19.2023 7.4998 19.6994V20.8994C7.4998 21.3965 7.09685 21.7994 6.59979 21.7994C6.10273 21.7994 5.69978 21.3965 5.69978 20.8994V19.6994C5.69978 19.2023 6.10273 18.7994 6.59979 18.7994Z" fill="#A1A1A9"/>
<path fill-rule="evenodd" clip-rule="evenodd" d="M12.6005 15.8006C12.6005 16.2977 12.1976 16.7007 11.7005 16.7007H1.50038C1.00332 16.7007 0.600372 16.2977 0.600372 15.8006C0.600372 15.3036 1.00332 14.9006 1.50038 14.9006H11.7005C12.1976 14.9006 12.6005 15.3036 12.6005 15.8006Z" fill="#A1A1A9"/>
<path fill-rule="evenodd" clip-rule="evenodd" d="M12.6005 11.0001C12.6005 11.4972 12.1976 11.9001 11.7005 11.9001H1.50038C1.00332 11.9001 0.600372 11.4972 0.600372 11.0001C0.600372 10.503 1.00332 10.1001 1.50038 10.1001H11.7005C12.1976 10.1001 12.6005 10.503 12.6005 11.0001Z" fill="#A1A1A9"/>
<path fill-rule="evenodd" clip-rule="evenodd" d="M12.6005 6.19933C12.6005 6.69639 12.1976 7.09934 11.7005 7.09934H1.50038C1.00332 7.09934 0.600372 6.69639 0.600372 6.19933C0.600372 5.70226 1.00332 5.29932 1.50038 5.29932H11.7005C12.1976 5.29932 12.6005 5.70226 12.6005 6.19933Z" fill="#A1A1A9"/>
<path fill-rule="evenodd" clip-rule="evenodd" d="M6.59979 0.199768C7.09685 0.199768 7.4998 0.602716 7.4998 1.09978V2.29979C7.4998 2.79685 7.09685 3.1998 6.59979 3.1998C6.10273 3.1998 5.69978 2.79685 5.69978 2.29979V1.09978C5.69978 0.602717 6.10273 0.199768 6.59979 0.199768Z" fill="#A1A1A9"/>
</svg>
