<svg width="16" height="16" viewBox="0 0 16 16" fill="none" xmlns="http://www.w3.org/2000/svg">
<path d="M0.5 8C0.5 3.85786 3.85786 0.5 8 0.5C12.1421 0.5 15.5 3.85786 15.5 8C15.5 12.1421 12.1421 15.5 8 15.5C3.85786 15.5 0.5 12.1421 0.5 8Z" fill="#27272A"/>
<path d="M0.5 8C0.5 3.85786 3.85786 0.5 8 0.5C12.1421 0.5 15.5 3.85786 15.5 8C15.5 12.1421 12.1421 15.5 8 15.5C3.85786 15.5 0.5 12.1421 0.5 8Z" stroke="#121212"/>
<path d="M5.75 8H5.755M8 8H8.005M10.25 8H10.255M8 12.5C10.4853 12.5 12.5 10.4853 12.5 8C12.5 5.51472 10.4853 3.5 8 3.5C5.51472 3.5 3.5 5.51472 3.5 8C3.5 8.59857 3.61687 9.16985 3.82903 9.69226C3.86964 9.79224 3.88994 9.84223 3.899 9.88264C3.90786 9.92217 3.9111 9.95142 3.9111 9.99193C3.91111 10.0333 3.90359 10.0785 3.88855 10.1687L3.59206 11.9476C3.56102 12.1339 3.54549 12.2271 3.57438 12.2944C3.59966 12.3534 3.64664 12.4003 3.70559 12.4256C3.77295 12.4545 3.86609 12.439 4.05238 12.4079L5.83133 12.1114C5.92154 12.0964 5.96665 12.0889 6.00807 12.0889C6.04858 12.0889 6.07783 12.0921 6.11736 12.101C6.15777 12.1101 6.20776 12.1304 6.30775 12.171C6.83015 12.3831 7.40143 12.5 8 12.5ZM6 8C6 8.13807 5.88807 8.25 5.75 8.25C5.61193 8.25 5.5 8.13807 5.5 8C5.5 7.86193 5.61193 7.75 5.75 7.75C5.88807 7.75 6 7.86193 6 8ZM8.25 8C8.25 8.13807 8.13807 8.25 8 8.25C7.86193 8.25 7.75 8.13807 7.75 8C7.75 7.86193 7.86193 7.75 8 7.75C8.13807 7.75 8.25 7.86193 8.25 8ZM10.5 8C10.5 8.13807 10.3881 8.25 10.25 8.25C10.1119 8.25 10 8.13807 10 8C10 7.86193 10.1119 7.75 10.25 7.75C10.3881 7.75 10.5 7.86193 10.5 8Z" stroke="#A1A1A9" stroke-linecap="round" stroke-linejoin="round"/>
</svg>
