<svg width="16" height="16" viewBox="0 0 16 16" fill="none" xmlns="http://www.w3.org/2000/svg">
<path d="M0.5 8C0.5 3.85786 3.85786 0.5 8 0.5C12.1421 0.5 15.5 3.85786 15.5 8C15.5 12.1421 12.1421 15.5 8 15.5C3.85786 15.5 0.5 12.1421 0.5 8Z" fill="#27272A"/>
<path d="M0.5 8C0.5 3.85786 3.85786 0.5 8 0.5C12.1421 0.5 15.5 3.85786 15.5 8C15.5 12.1421 12.1421 15.5 8 15.5C3.85786 15.5 0.5 12.1421 0.5 8Z" stroke="#121212"/>
<g clip-path="url(#clip0_0_1053)">
<path d="M9.82296 11.0075C10.0374 11.8077 9.5625 12.6302 8.7623 12.8446C7.9621 13.059 7.13959 12.5841 6.92518 11.7839M3.02842 7.80672C2.83367 7.10763 3.03619 6.35181 3.55439 5.84375M8.07316 4.87049C8.22526 4.59684 8.27536 4.26609 8.18793 3.93979C8.00926 3.27295 7.32383 2.87723 6.657 3.0559C5.99017 3.23458 5.59444 3.92 5.77312 4.58683C5.86055 4.91313 6.06932 5.17452 6.33787 5.33545M12.1595 5.36006C11.9786 4.65726 11.4253 4.10396 10.7225 3.92307M10.7453 6.7227C10.5668 6.05664 10.0904 5.49965 9.42074 5.17429C8.75111 4.84892 7.94315 4.78182 7.17461 4.98775C6.40607 5.19368 5.73991 5.65577 5.32267 6.27236C4.90543 6.88896 4.77129 7.60955 4.94976 8.27562C5.24505 9.37764 5.18771 10.2568 5.00123 10.9249C4.7887 11.6863 4.68243 12.067 4.71114 12.1435C4.74399 12.231 4.76775 12.255 4.85486 12.2887C4.93101 12.3182 5.25089 12.2325 5.89067 12.0611L11.8232 10.4715C12.463 10.3 12.7829 10.2143 12.834 10.1507C12.8926 10.0779 12.9012 10.0452 12.8859 9.95307C12.8725 9.87251 12.5902 9.59594 12.0254 9.04279C11.5299 8.55746 11.0406 7.82473 10.7453 6.7227Z" stroke="#A1A1A9" stroke-linecap="round" stroke-linejoin="round"/>
</g>
<defs>
<clipPath id="clip0_0_1053">
<rect width="12" height="12" fill="white" transform="translate(2 2)"/>
</clipPath>
</defs>
</svg>
