<svg width="16" height="16" viewBox="0 0 16 16" fill="none" xmlns="http://www.w3.org/2000/svg">
<path d="M0.5 8C0.5 3.85786 3.85786 0.5 8 0.5C12.1421 0.5 15.5 3.85786 15.5 8C15.5 12.1421 12.1421 15.5 8 15.5C3.85786 15.5 0.5 12.1421 0.5 8Z" fill="#27272A"/>
<path d="M0.5 8C0.5 3.85786 3.85786 0.5 8 0.5C12.1421 0.5 15.5 3.85786 15.5 8C15.5 12.1421 12.1421 15.5 8 15.5C3.85786 15.5 0.5 12.1421 0.5 8Z" stroke="#121212"/>
<path d="M8.49999 3L4.04672 8.34393C3.87232 8.55321 3.78511 8.65785 3.78378 8.74623C3.78262 8.82306 3.81686 8.89615 3.87662 8.94445C3.94537 9 4.08158 9 4.35401 9H7.99999L7.49999 13L11.9533 7.65607C12.1277 7.44679 12.2149 7.34215 12.2162 7.25377C12.2174 7.17694 12.1831 7.10385 12.1234 7.05555C12.0546 7 11.9184 7 11.646 7H7.99999L8.49999 3Z" stroke="#A1A1A9" stroke-linecap="round" stroke-linejoin="round"/>
</svg>
