<svg width="20" height="20" viewBox="0 0 20 20" fill="none" xmlns="http://www.w3.org/2000/svg">
<path d="M14.1667 8.33333V6.66667C14.1667 4.36548 12.3012 2.5 10 2.5C7.69882 2.5 5.83334 4.36548 5.83334 6.66667V8.33333M10 12.0833V13.75M7.33334 17.5H12.6667C14.0668 17.5 14.7669 17.5 15.3017 17.2275C15.7721 16.9878 16.1545 16.6054 16.3942 16.135C16.6667 15.6002 16.6667 14.9001 16.6667 13.5V12.3333C16.6667 10.9332 16.6667 10.2331 16.3942 9.69836C16.1545 9.22795 15.7721 8.8455 15.3017 8.60582C14.7669 8.33333 14.0668 8.33333 12.6667 8.33333H7.33334C5.93321 8.33333 5.23315 8.33333 4.69837 8.60582C4.22796 8.8455 3.84551 9.22795 3.60583 9.69836C3.33334 10.2331 3.33334 10.9332 3.33334 12.3333V13.5C3.33334 14.9001 3.33334 15.6002 3.60583 16.135C3.84551 16.6054 4.22796 16.9878 4.69837 17.2275C5.23315 17.5 5.93321 17.5 7.33334 17.5Z" stroke="#A1A1A9" stroke-width="1.5" stroke-linecap="round" stroke-linejoin="round"/>
</svg>
